<?xml version="1.0" encoding="utf-8"?>
<!-- Generator: Adobe Illustrator 26.0.1, SVG Export Plug-In . SVG Version: 6.00 Build 0)  -->
<svg version="1.1" id="Layer_1" xmlns="http://www.w3.org/2000/svg" xmlns:xlink="http://www.w3.org/1999/xlink" x="0px" y="0px"
	 viewBox="0 0 311.3 48.2" style="enable-background:new 0 0 311.3 48.2;" xml:space="preserve">
<style type="text/css">
	.st0{fill:#C9B6B3;}
	.st1{fill:#FFF6F4;}
</style>
<path class="st0" d="M180.2,25.6c0.2-0.2,0.5-0.4,0.7-0.6c0.1,0.1,0.1,0.2,0.2,0.2c-0.2,0.2-0.4,0.4-0.7,0.6
	C180.4,25.8,180.3,25.7,180.2,25.6z"/>
<polygon class="st0" points="293.8,23.7 294,23.8 293.9,23.7 "/>
<path class="st0" d="M293.9,23.7c0-0.2,0-0.3,0-0.5l0,0C293.8,23.4,293.8,23.5,293.9,23.7L293.9,23.7z"/>
<path class="st1" d="M0.4,45.8l-0.4-2V13L0.1,11l0.1-0.9L0.1,9l0.1-2.5l0.1-1.4V3.6l0.1-2.2l1.3-1l5-0.1L9.4,0h3.5l2.5,0.1l2.6,0.2
	l2.7,0.5l2.5,0.5l1.2,0.4l1.2,0.5L27,2.7L28,3.4L30,5L30.9,6L31.6,7l0.6,1.1l0.5,1.2l0.5,2.4l0.1,1.3l0.1,2.7l-0.2,1.4l-0.3,1.4
	l-1.2,2.5L31,22.3l-0.9,1.1l-0.9,1l-1.1,0.9L26,27l-1.1,0.5l-1.3,0.4l-2.1,0.6l-0.8,0.4l0.9,1.1l0.8,0.9l1.7,1.9l8.2,8.7l2.1,2.1
	l0.9,1.7l-1.5,0.7L32.5,46h-1.3l-1.8-0.5l-1.4-1.3l-2.7-2.9l-0.9-1l-0.9-0.9l-1.8-2.1l-2.9-3.1l-1-1l-1.5-1.5l-0.7-0.7L15.1,32v1.2
	l-0.1,1.2v9l-0.2,2l-0.8,0.5H9.6L8.2,46l-2,0.1l-3,0.1l-1.5,0.1L0.4,45.8z M18.3,24.7l2.7-0.4l1.4-0.4l1.3-0.6l1.2-0.7l1.4-1
	l0.9-1.3L28,19l0.5-1.3l0.3-1.3l0.2-2.2v-1.4l-0.5-1.9l-0.6-1.3l-1.8-2.2L25,6.6l-1.3-0.7l-2.5-0.7L20,4.9h-1.2L16.5,5l-1.1,0.5
	l-0.1,1.8v5.2L15.3,14l-0.1,1.3l0.1,1.4v1.6l-0.1,2.1V23l0.3,1.7l1.7,0.1L18.3,24.7z"/>
<path class="st1" d="M46.7,47.7l-1-0.2l-1.3,0.2l-1.2-0.2H42l-1.2-0.4l-0.4-1.5l-0.1-1.2l0.1-1.9l0.2-1.5l-0.1-1.3l-0.1-0.9v-0.9
	l-0.1-0.7l0.1-1l-0.1-1.3l0.1-0.9l-0.1-1.3l0.1-1.7l-0.1-1.2l0.2-0.7V14.7l-0.1-2.1l-0.2-1.4l0.8-0.9l1.7-0.1h8.7l1.6,0.1l1.3-0.1
	h1.3l1.9-0.1l1.2,0.1h1.8l1,0.2l0.5,0.5l0.2,1.2L62,13.5L61.1,14l-0.9-0.2L58.8,14L57.3,14L55.7,14h-2.2l-0.4,0.4v3.4l-0.1,1v3
	l-0.2,1.7v5.7l1.3,0.4l1.2-0.1H59l1.6,0.2l0.7,1.2l0.1,1l-0.5,1.4l-0.8,0.2l-0.8-0.1h-6.2l-0.3,0.3l-0.1,1.4v8.3l1,0.3l1,0.1h5
	l1.6,0.5l0.2,1.7v1.3l-0.4,0.3l-1.1-0.1h-0.9l-1.5,0.2l-1.1,0.1l-0.9-0.1l-0.8,0.1l-1.2-0.1h-1.4l-0.7,0.1l-1.1-0.1l-1,0.1l-1,0.1
	L46.7,47.7z"/>
<path class="st1" d="M85.1,45.5l-2.5-0.2l-1.2-0.2l-1.1-0.2l-1.1-0.3l-2.1-0.8l-1-0.5l-1-0.6l-0.9-0.6l-1.7-1.3l-0.8-0.7L71,39.4
	l-1.2-1.7l-0.6-0.9l-1.1-1.8l-0.4-0.9l-0.3-0.9L66.7,31l-0.4-2.2v-3.7l0.1-1.2l0.2-1.2l0.3-1.2l0.7-2.2l0.4-1l1-1.9l0.6-0.9l0.9-1.3
	l1.1-1.3l0.8-0.8l1.7-1.3l0.8-0.6l1.8-1l1-0.5l1-0.4L79.6,8l2.1-0.7l2.5-0.4l2.6-0.3l1.5,0.2l0.4,0.4l0.1,1.3v2.2l0.1,1.7l0.1,0.8
	V14l0.1,1.5L89,17.1V18l-0.8,0.4l-2,0.2L85,18.8l-2.3,0.8l-1,0.6l-0.9,0.7L80,21.7l-0.8,1.2l-0.4,1.5l-0.3,2.4l0.1,1l0.7,2l0.6,0.9
	l0.7,0.8l0.8,0.7l1.9,1.1l1,0.3l1.1,0.2l1.9,0.3l1.3,0.1l0.4,0.7l0.1,1.8l0.1,2.3l-0.1,2.1v3.2L88.7,45l-1.2,0.6L85.1,45.5z"/>
<path class="st1" d="M97.1,44.6l-0.4-0.9v-1.4L96.5,39l-0.1-1.8v-2.2l0.1-1.4v-2.3l-0.1-1l0.2-0.8L96.5,29l0.2-1.1v-9.5l0.1-1.1
	v-2.9l0.2-0.8v-1.3l0.1-1.2l-0.1-1.3l-0.1-1.3L97,8l0.6-0.4l0.8,0.2l1.9-0.2h1.1l1.7,0.1l0.9-0.1l1.4,0.2l2,0.1l1.2,0.7v1.4l0.1,1.4
	l-0.1,1.4l0.1,1.4l-0.1,1.5l-0.1,1.7l0.1,1.7l-0.1,1.2l0.1,1.1l-0.1,1.5l0.1,1.8l-0.1,1.4l0.1,1.2l-0.1,1.8v5.4l0.1,1.7l0.1,1.5
	l-0.1,1.2l0.1,0.7l-0.1,1l0.1,1.3l-0.1,0.7l0.2,0.6l-0.1,0.8l-0.2,0.7l-1.2,0.2h-7.7L98,44.9L97.1,44.6z"/>
<path class="st1" d="M115.4,44.6l-1.1-0.7l-0.1-1.9v-1.1l0.1-2.4v-4.8l0.1-2.5V20.7l0.1-1.3l0.1-1.9l0.1-1.3v-1.3l-0.1-1.3V11
	l0.1-1.3V5.1l0.2-1l0.5-0.4l1.6-0.1h4.5l1-0.1l1.3-0.1l0.7,0.1l1.8-0.1h1.3l2.1,0.2h2.2l2.5,0.2l1.2,0.3l1.2,0.4l1.8,0.8l1.5,1.1
	l1,0.8l0.8,0.9l0.8,1l0.7,1l1.1,2.4l0.6,2.8l0.1,2.5l-0.1,1l-0.2,1l-0.9,2.2l-1.5,2.1l-0.8,0.9l-0.9,0.8l-0.9,0.7L138,28l-2,0.9
	l-1.1,0.3l-1.1,0.4l-2.1,0.4l-1,0.2l-1.6,0.1l-0.7,0.7v1.1l-0.2,1.1l-0.1,1.5v7.4l-0.2,1.6l-0.6,0.6l-1.6,0.2h-8.5L115.4,44.6z
	 M130.7,26.2l2.6-0.5l2.5-1l1.1-0.6l1-0.7l0.9-0.9l1.4-2.4l0.6-2.7v-1.3l-0.1-1.3l-0.6-1.9l-1.1-1.6l-0.7-0.8l-1.6-1.5l-0.9-0.5
	l-2.1-0.7l-1.2-0.2l-1.1-0.1h-1.7l-1,0.1l-0.3,1.4v3.6l-0.2,2.2l0.1,1.5l-0.1,1.2V20l-0.1,0.7l0.1,0.5l0.1,1.6v2.3l1.2,1L130.7,26.2
	z"/>
<path class="st1" d="M157.3,44l-1-0.2l-1.3,0.2l-1.2-0.2h-1.2l-1.2-0.4l-0.4-1.5l-0.1-1.2l0.1-1.9l0.2-1.5l-0.1-1.3l-0.1-0.9v-0.9
	l-0.1-0.7l0.1-1l-0.1-1.3l0.1-0.9l-0.1-1.3l0.1-1.7l-0.1-1.2l0.2-0.7V11L151.1,9l-0.2-1.4l0.8-0.9l1.7-0.1h8.7l1.6,0.1l1.3-0.1h1.3
	l1.9-0.1l1.2,0.1h1.8l1,0.2l0.5,0.5l0.2,1.2l-0.4,1.5l-0.9,0.5l-0.9-0.2l-1.4,0.2l-1.5-0.1l-1.5,0.1h-2.2l-0.4,0.4v3.4l-0.1,1v3
	l-0.2,1.7v5.7l1.3,0.4l1.2-0.1h3.7l1.6,0.2l0.7,1.2l0.1,1l-0.5,1.4l-0.8,0.2l-0.8-0.1h-6.2l-0.3,0.3l-0.1,1.4v8.3l1,0.3l1,0.1h5
	l1.6,0.5l0.2,1.7v1.3l-0.4,0.3l-1.1-0.1h-0.9l-1.5,0.2l-1.1,0.1l-0.9-0.1l-0.8,0.1l-1.2-0.1h-1.4l-0.7,0.1l-1.1-0.1l-1,0.1l-1,0.1
	L157.3,44z"/>
<path class="st1" d="M194.3,48.1l-1.1-0.2l-2-0.5l-1-0.3l-0.9-0.4l-1-0.4l-1.5-0.8l-0.7-0.5l-1.1-0.7l-0.8-0.7l-0.8-0.8l-1.5-1.5
	l-0.7-0.8l-0.6-0.8l-0.6-0.9l-1-1.9l-0.9-2.1l-0.6-2.2l-0.3-2l-0.2-1.6v-1.7l0.2-1.9l0.2-0.9l0.5-1.9l0.3-1l0.4-1l0.9-1.8l0.5-0.9
	l0.6-0.9l0.7-0.8l0.7-0.8l1.7-1.5l1-0.8l2-1.3l2-1l0.9-0.4l1-0.3l2-0.6l1.9-0.4l1-0.1h3.6l1.1,0.1l1,0.2l2.1,0.6l0.9,0.3l0.9,0.4
	l1.9,0.9l0.9,0.6l1.3,0.9l1,1l1.8,1.6l1.4,2l0.6,0.8l0.5,0.9l0.5,0.9l0.9,2l0.4,1.1l0.6,2.4l0.2,2.4V29l-0.2,2.3l-0.2,1l-0.6,2.2
	l-0.4,1.1l-0.5,1l-0.6,1l-0.6,1l-0.7,1l-0.9,1.3l-2.8,2.9l-0.8,0.7l-1.7,1.2l-1.9,1l-1,0.4l-1.1,0.3l-1.1,0.3l-2.3,0.2l-2.3,0.1
	h-2.3L194.3,48.1z M197.8,35.9l0.9-0.2l2-0.8l1-0.6l0.9-0.8l1.4-2l0.5-1.2l0.3-2.4l-0.1-1.2l-0.3-1.2l-0.4-1.1l-1-1.8l-1.5-1.2
	l-0.9-0.5l-0.9-0.3l-1.3-0.2l-1.4-0.2l-1.2,0.1l-1.4,0.5l-1.4,0.6l-1,0.7l-1.5,1.8l-0.6,0.9l-0.4,1l-0.2,1l0.1,2.4l0.3,1.2l0.9,2
	l0.5,0.8l1.6,1.3l1,0.6l1,0.4l1.1,0.2H197.8z"/>
<path class="st1" d="M223.6,43.9l-1-0.7l0-1.8l0-1.1l0.2-2.3l0.2-4.7l0.2-2.4l0.4-10.2l0.1-1.3l0.2-1.8l0.1-1.3l0.1-1.2l0-1.3
	l0.1-2.5l0.1-1.2l0.2-4.5l0.2-1l0.5-0.3l1.6,0l4.4,0.2l1,0l1.3,0l0.6,0.1l1.7,0l1.2,0.1l2,0.3l2.2,0.1l2.5,0.3l1.2,0.3l1.1,0.5
	l1.7,0.9l1.4,1.2l0.9,0.8l0.7,0.9l0.7,1l0.6,1l1,2.4l0.5,2.7l0,2.4l-0.2,1l-0.3,1l-1,2.1l-1.5,1.9l-0.8,0.8l-0.9,0.7l-0.9,0.7
	l-1.9,1.1l-2,0.8l-1.1,0.3l-1.1,0.3l-2.1,0.3l-1,0.1l-1.6,0l-0.7,0.7l0,1.1l-0.2,1.1l-0.1,1.5l-0.3,7.2l-0.2,1.6l-0.6,0.6l-1.6,0.2
	l-8.2-0.3L223.6,43.9z M239,26.7l2.5-0.4l2.5-0.8l1.1-0.5l1-0.7l0.9-0.8l1.4-2.2l0.7-2.6l0.1-1.3l-0.1-1.2l-0.5-1.9l-1-1.6l-0.7-0.9
	l-1.5-1.5l-0.9-0.6l-2-0.7l-1.1-0.2l-1.1-0.2l-1.6-0.1l-1,0l-0.3,1.3l-0.1,3.5l-0.3,2.1l0.1,1.5l-0.1,1.2l-0.1,2.5l-0.1,0.7l0,0.5
	l0.1,1.6l-0.1,2.2l1.1,1L239,26.7z"/>
<path class="st1" d="M259.9,43.1l-0.4-1.7v-6.9l-0.2-1.1l0.2-1v-1.2l0.1-1.5l-0.1-1.5l0.1-1.8l-0.1-2.1v-6.2l0.1-1.1v-3.4l0.1-2.3
	l-0.1-2.3l0.1-1.9l-0.1-1.2l0.1-1.2l0.4-0.8h1.2l1.6-0.1l1.2-0.1l1.6,0.1l2.2-0.1h1.1l1.5,0.1h0.9l0.6,0.1l0.4,0.3l0.4,1.6v7.2
	l0.2,1.2l-0.1,0.5l0.1,0.9l-0.1,1.9v15.5l0.1,2.2l0.1,1.9l0.1,1.4l1.1,0.3h1.1l2.2-0.1h2.3l1.8-0.1l1,0.1l0.5,1.6l-0.1,2.2l-0.6,0.6
	h-1.2l-2.1,0.1h-5.5l-1.6,0.3l-1.3-0.1l-1.6-0.1l-1.3,0.1l-1.1,0.1h-3l-2.7,0.1L259.9,43.1z"/>
<path class="st1" d="M294.6,46.5l-1.1-0.2l-1.3,0.2l-1.2-0.2h-1.3l-1.3-0.4l-0.4-1.6l-0.1-1.2l0.1-2l0.2-1.6l-0.1-1.3l-0.1-1v-1
	l-0.1-0.8l0.1-1.1l-0.1-1.4l0.1-1l-0.1-1.3l0.1-1.8l-0.1-1.3l0.2-0.8V11.3l-0.1-2.2l-0.2-1.5l0.8-1l1.8-0.1h9.3l1.7,0.1l1.3-0.1h1.4
	l2.1-0.1l1.2,0.1h1.9l1.1,0.2l0.6,0.5l0.2,1.3l-0.4,1.6l-0.9,0.5l-0.9-0.2l-1.5,0.2l-1.6-0.1l-1.6,0.1h-2.3l-0.5,0.4v3.6l-0.1,1.1
	v3.2l-0.2,1.8v6.1l1.4,0.4l1.3-0.1h3.9l1.7,0.2l0.7,1.3l0.1,1.1l-0.5,1.5l-0.8,0.2l-0.8-0.1h-6.6l-0.3,0.3l-0.1,1.5V42l1.1,0.3
	l1.1,0.1h5.3l1.7,0.5l0.2,1.8V46l-0.5,0.4l-1.2-0.1h-1l-1.6,0.2l-1.2,0.1l-0.9-0.1l-0.8,0.1l-1.3-0.1h-1.5l-0.8,0.1l-1.2-0.1
	l-1.1,0.1l-1.1,0.1L294.6,46.5z"/>
</svg>
