<?xml version="1.0" encoding="utf-8"?>
<!-- Generator: Adobe Illustrator 26.0.1, SVG Export Plug-In . SVG Version: 6.00 Build 0)  -->
<svg version="1.1" id="Layer_1" xmlns="http://www.w3.org/2000/svg" xmlns:xlink="http://www.w3.org/1999/xlink" x="0px" y="0px"
	 viewBox="0 0 219.6 288" style="enable-background:new 0 0 219.6 288;" xml:space="preserve">
<style type="text/css">
	.st0{fill:#FFF6F4;}
</style>
<path class="st0" d="M106.5,95.2c15.7-13.7,22.1-23.3,19-28.6c-2.5-4.2-9.5-4.3-23.6-0.2c-1.5,0.4-2.4,2.1-2,3.6
	c0.4,1.5,2.1,2.4,3.6,2c13.3-3.8,16.5-2.7,17-2.4c0.6,4.3-17.4,23.4-39.6,37.6c-13.4,8.6-20.6,9.9-22.1,8.7
	c-0.6-0.4-0.5-3.4-0.5-5.2c0.1-4.7,0.2-11.2-4.6-16.2c-3-3.1-6.7-4.4-9.9-5c1.9-0.6,4.1-1.3,6.1-2c15.9-5,42.5-13.4,54.8-31.7
	c2-2.9,7.2-10.8,7.3-21.8c0-7.5-1.9-14.1-5.7-19.5C97.7,2.2,79.9-3.6,69.7,2.4c-6.8,4-10.5,13.4-12.3,19.4
	c-3.6-2.7-7.9-4.4-12.6-4.7c-6.4-0.5-12.5,1.5-17.3,5.5C22.5,26.9,19.9,33,20,40.2c0.1,5.4,1.9,10.8,3.7,14
	c-5.4,1.5-13.7,4.3-17.5,7.4C2.5,64.8-0.1,71.2,0,77.4c0.1,5.3,2,9.8,5.5,12.5c6.2,4.9,16.7,3.8,24.3-2.6c1.2-1,1.4-2.9,0.4-4.1
	c-1-1.2-2.9-1.4-4.1-0.4c-6.1,5.1-13.4,5.3-17,2.5c-2.8-2.2-3.2-6-3.2-8c-0.1-4.4,1.7-9.2,4.2-11.3c4-3.3,16.8-6.8,19-7.2
	c1.1-0.1,2-0.7,2.5-1.6c1.3-2.4-0.9-4.2-2.3-5.2c-0.8-1.1-3.9-7.2-3.4-14.1c0.3-4.5,2.1-8.3,5.4-11.1c3.6-3.1,8.2-4.6,13-4.2
	c4.9,0.4,9.3,2.6,12.4,6.3l3.9,4.7l1.1-6c0-0.2,3.1-15.9,10.7-20.4c7.5-4.4,22.1,0.8,28.9,10.4c3.1,4.4,4.7,9.8,4.7,16.1
	c-0.1,9.3-4.6,16.1-6.3,18.6c-2.3,3.5-5.3,6.6-8.7,9.4c-0.8-1.5,0-4.5,0.8-6.2c0.7-1.5,0-3.2-1.4-3.9c-1.5-0.7-3.2,0-3.9,1.4
	c-0.8,1.8-3.2,7.8-0.2,12.2c-0.6,0.4-1.3,0.9-2,1.3c-0.3-0.3-0.7-0.5-1.1-0.6c-5.2-1.5-9-5.5-9.1-9.5c0-2.2,1.1-4.1,2.1-5.3
	c1-1.2,0.8-3.1-0.4-4.1c-1.2-1-3.1-0.8-4.1,0.4c-1.6,1.9-3.4,5-3.4,9c0,5.6,3.8,10.9,9.6,13.7c-5.6,2.9-11.4,5.3-16.9,7.2
	c0.6-2,0.6-4.1-0.1-6c-1-2.6-2.9-4.1-4.3-4.9c-1.4-0.8-3.2-0.3-4,1.1c-0.8,1.4-0.3,3.2,1.1,4c0.6,0.4,1.4,1,1.8,1.9
	c0.7,1.8-0.5,4.3-2.7,6c-0.4,0.3-0.7,0.7-0.9,1.1c-1.4,0.4-2.7,0.9-4,1.3c-11,3.5-15.6,4.9-14.9,9.1c0.5,3,3.5,3.4,6.2,3.7
	c3,0.4,7.2,0.9,10,3.8c3.2,3.3,3.1,7.8,3,12.1c-0.1,3.9-0.2,7.7,2.7,9.9c1.4,1.1,3.1,1.6,5.2,1.6C75.6,122.1,106.2,95.5,106.5,95.2z
	"/>
<path class="st0" d="M215.5,275.9l-9.1-9.1l-35.9-38.3l-7.6-8.2l-3.5-4.1l-3.8-4.7l3.5-1.8l9.1-2.6l5.6-1.8l5-2.4l9.7-6.8l4.7-4.1
	l3.8-4.4l3.8-5l2.9-5.3l5.3-11.2l1.5-6.2l0.9-6.2l-0.3-12.1l-0.6-5.6l-2.4-10.6l-2.1-5.3l-2.6-5l-2.9-4.7l-3.8-4.1l-8.8-7.1
	l-4.7-2.9l-5.3-2.4l-5.3-2.1l-5.3-1.8L156,87.8l-12.1-2.1l-11.3-0.9c-3.4,5.3-9.2,11.5-17.7,18.9c-1.3,1.1-31.9,27.9-48.7,27.9h0
	c-0.5,0-0.9,0-1.4-0.1l-0.2,1.3l-0.3,8.5v135.4l1.8,8.8l5.6,2.4l6.8-0.3l13.2-0.3l8.8-0.6l5.9-0.6h19.7l3.5-2.1l0.9-8.8v-39.7
	l0.3-5.3V225l1.5-4.7l3.2,3.2l6.5,6.8l4.4,4.4l12.7,13.5l7.9,9.1l4.1,4.1l3.8,4.4l12.1,12.7l6.2,5.9l7.9,2.1h5.9l5.6-0.3l6.8-2.9
	L215.5,275.9z M145.1,192.9l-5,0.3l-7.7-0.3l-1.5-7.4v-11.5l0.3-9.4v-7.1l-0.3-6.2l0.6-5.6l0.6-6.5v-23l0.3-8l4.7-2.1l10-0.3h5.3
	l5,0.6l11.2,3.2l5.6,3.2l5,3.5l7.9,9.7l2.6,5.6l2.4,8.2v6.2l-0.9,9.7l-1.5,5.9l-2.4,5.9l-2.9,5.3l-4.1,5.9l-6.2,4.4l-5.3,3.2
	l-5.9,2.6l-6.2,1.8L145.1,192.9z"/>
</svg>
