<?xml version="1.0" encoding="utf-8"?>
<!-- Generator: Adobe Illustrator 26.0.1, SVG Export Plug-In . SVG Version: 6.00 Build 0)  -->
<svg version="1.1" id="Layer_1" xmlns="http://www.w3.org/2000/svg" xmlns:xlink="http://www.w3.org/1999/xlink" x="0px" y="0px"
	 viewBox="0 0 146.7 189.9" style="enable-background:new 0 0 146.7 189.9;" xml:space="preserve">
<style type="text/css">
	.st0{fill:#600B0B;}
	.st1{fill:#FFF6F4;}
</style>
<g>
	<g>
		<path class="st0" d="M39.1,188.3l-1.2-6.2v-95l0.2-6l0.4-2.9L38,74.7l0.4-7.6l0.2-4.3v-4.5l0.2-6.8l4.1-3.1l15.5-0.4L67,47h10.7
			l7.8,0.4l8.1,0.6l8.5,1.4l7.8,1.7l3.7,1.2l3.7,1.4l3.7,1.7l3.3,2.1l6.2,5l2.7,2.9l2.1,3.3l1.9,3.5l1.4,3.7l1.7,7.4l0.4,3.9
			l0.2,8.5l-0.6,4.3l-1,4.3l-3.7,7.9l-2.1,3.7l-2.7,3.5l-2.7,3.1l-3.3,2.9l-6.8,4.7l-3.5,1.7l-3.9,1.2l-6.4,1.9l-2.5,1.2l2.7,3.3
			l2.5,2.9l5.4,5.8l25.2,26.8l6.4,6.4l2.9,5.2l-4.8,2.1l-3.9,0.2h-4.1l-5.6-1.4l-4.3-4.1l-8.5-8.9l-2.7-3.1l-2.9-2.9l-5.6-6.4
			l-8.9-9.5l-3.1-3.1l-4.5-4.8l-2.3-2.3l-1,3.3v3.7l-0.2,3.7v27.9l-0.6,6.2l-2.5,1.4H67.4l-4.1,0.4l-6.2,0.4l-9.3,0.2l-4.8,0.2
			L39.1,188.3z M94.4,123.2l8.3-1.2l4.3-1.2l4.1-1.9l3.7-2.3l4.3-3.1l2.9-4.1l2.1-3.7l1.7-4.1l1-4.1l0.6-6.8v-4.3l-1.7-5.8l-1.9-3.9
			l-5.6-6.8l-3.5-2.5l-3.9-2.3l-7.8-2.3l-3.5-0.4h-3.7l-7,0.2L85.5,64l-0.2,5.6v16.1l-0.4,4.5l-0.4,3.9l0.2,4.3v5l-0.2,6.6v8l1,5.2
			l5.4,0.2L94.4,123.2z"/>
	</g>
</g>
<g>
	<g>
		<g>
			<path class="st1" d="M41.2,83.3c-1.4,0-2.6-0.3-3.5-1.1c-2-1.5-1.9-4.1-1.8-6.8c0.1-2.9,0.1-6-2.1-8.2c-1.9-2-4.8-2.4-6.8-2.6
				c-1.8-0.2-3.9-0.5-4.2-2.5c-0.5-2.8,2.7-3.8,10.2-6.2c10.3-3.3,27.7-8.7,35.3-20.1c1.2-1.7,4.3-6.3,4.3-12.7c0-4.3-1-8-3.2-11
				C64.7,5.6,54.7,2,49.6,5c-5.2,3.1-7.3,13.8-7.3,13.9l-0.8,4.1l-2.7-3.2c-2.1-2.5-5.2-4.1-8.5-4.3c-3.3-0.3-6.4,0.7-8.9,2.8
				c-2.2,1.9-3.5,4.5-3.7,7.6c-0.3,4.7,1.8,8.9,2.3,9.6c0.9,0.7,2.4,1.9,1.5,3.5c-0.3,0.6-1,1-1.7,1.1c-1.5,0.2-10.3,2.6-13,4.9
				c-1.7,1.4-2.9,4.7-2.9,7.7c0,1.4,0.3,4,2.2,5.5c2.4,1.9,7.4,1.8,11.6-1.7c0.8-0.7,2.1-0.6,2.8,0.2c0.7,0.8,0.6,2.1-0.2,2.8
				C15.1,63.9,8,64.7,3.7,61.3c-2.3-1.9-3.7-4.9-3.7-8.5c-0.1-4.2,1.7-8.6,4.3-10.8c2.6-2.2,8.2-4.1,11.9-5.1
				c-1.2-2.2-2.4-5.8-2.5-9.5c-0.1-4.9,1.6-9.1,5.1-12.1c3.3-2.8,7.4-4.1,11.8-3.8c3.2,0.3,6.1,1.4,8.6,3.2c1.2-4,3.7-10.5,8.4-13.2
				c7-4.1,19.1-0.1,25,8.2c2.6,3.7,3.9,8.2,3.9,13.3c0,7.6-3.6,12.9-5,14.9c-8.4,12.5-26.5,18.2-37.4,21.6c-1.4,0.4-2.9,0.9-4.2,1.3
				c2.1,0.4,4.7,1.3,6.7,3.4c3.3,3.5,3.2,7.9,3.2,11.1c0,1.2-0.1,3.2,0.3,3.5c1,0.8,5.9-0.1,15.1-5.9c15.1-9.7,27.4-22.7,27-25.7
				c-0.4-0.2-2.5-1-11.6,1.6c-1.1,0.3-2.2-0.3-2.5-1.4c-0.3-1.1,0.3-2.2,1.4-2.5c9.6-2.7,14.4-2.7,16.1,0.2
				c2.1,3.6-2.3,10.1-13,19.5C72.4,65.2,51.6,83.3,41.2,83.3z M19.6,36.2c-0.1,0-0.2,0-0.3,0C19.4,36.2,19.6,36.2,19.6,36.2z"/>
		</g>
	</g>
	<g>
		<g>
			<path class="st1" d="M61.5,46.3c-0.4,0-0.8-0.1-1.2-0.4c-0.4-0.3-0.7-0.6-1-1c-2.4-3-0.7-7.3-0.1-8.6c0.5-1,1.6-1.4,2.6-1
				c1,0.5,1.4,1.6,1,2.6c-0.6,1.3-1.2,3.5-0.4,4.5c0.1,0.1,0.2,0.2,0.3,0.2c0.9,0.6,1.1,1.9,0.4,2.8C62.7,46,62.1,46.3,61.5,46.3z"
				/>
		</g>
	</g>
	<g>
		<g>
			<path class="st1" d="M56.4,49c-0.2,0-0.4,0-0.5-0.1c-5.3-1.5-9.1-5.7-9.1-10.3c0-2.7,1.3-4.8,2.3-6.1c0.7-0.9,1.9-1,2.8-0.3
				c0.9,0.7,1,1.9,0.3,2.8c-0.6,0.8-1.4,2.1-1.4,3.6c0,2.8,2.6,5.5,6.2,6.5c1.1,0.3,1.7,1.4,1.4,2.4C58.1,48.5,57.3,49,56.4,49z"/>
		</g>
	</g>
	<g>
		<g>
			<path class="st1" d="M37.4,57.9c-0.6,0-1.2-0.3-1.6-0.8c-0.6-0.9-0.5-2.1,0.4-2.8c1.5-1.1,2.3-2.8,1.8-4.1
				c-0.2-0.6-0.8-1.1-1.2-1.3c-0.9-0.6-1.3-1.8-0.7-2.7c0.6-0.9,1.8-1.3,2.7-0.7c1,0.6,2.3,1.6,2.9,3.4c1.1,2.9-0.2,6.5-3.2,8.7
				C38.2,57.8,37.8,57.9,37.4,57.9z"/>
		</g>
	</g>
</g>
</svg>
